<?xml version="1.0" encoding="utf-8"?>
<!-- Generator: Adobe Illustrator 22.1.0, SVG Export Plug-In . SVG Version: 6.00 Build 0)  -->
<svg version="1.1" id="Layer_1" xmlns="http://www.w3.org/2000/svg" xmlns:xlink="http://www.w3.org/1999/xlink" x="0px" y="0px"
	 viewBox="0 0 203 49.3" style="enable-background:new 0 0 203 49.3;" xml:space="preserve">
<style type="text/css">
	.st0{fill:#5A5F63;}
	.st1{filter:url(#Adobe_OpacityMaskFilter);}
	.st2{fill:#FFFFFF;}
	.st3{mask:url(#mask-2_1_);fill:#5A5F63;}
	.st4{filter:url(#Adobe_OpacityMaskFilter_1_);}
	.st5{mask:url(#mask-2_2_);fill:#5A5F63;}
	.st6{filter:url(#Adobe_OpacityMaskFilter_2_);}
	.st7{mask:url(#mask-2_3_);fill:#5A5F63;}
	.st8{filter:url(#Adobe_OpacityMaskFilter_3_);}
	.st9{mask:url(#mask-2_4_);fill:#5A5F63;}
	.st10{filter:url(#Adobe_OpacityMaskFilter_4_);}
	.st11{mask:url(#mask-2_21_);fill:#C4C4C4;}
	.st12{filter:url(#Adobe_OpacityMaskFilter_5_);}
	.st13{mask:url(#mask-2_22_);fill:#C4C4C4;}
	.st14{filter:url(#Adobe_OpacityMaskFilter_6_);}
	.st15{mask:url(#mask-2_23_);fill:#44B7B6;}
	.st16{filter:url(#Adobe_OpacityMaskFilter_7_);}
	.st17{mask:url(#mask-2_24_);fill:#44B7B6;}
	.st18{filter:url(#Adobe_OpacityMaskFilter_8_);}
	.st19{mask:url(#mask-2_25_);fill:#348285;}
</style>
<title>Group</title>
<desc>Created with Sketch.</desc>
<g id="_x31_.-Artboards">
	<g id="Kitts-Home-Desktop-" transform="translate(-146.000000, -16.000000)">
		<g id="Group" transform="translate(146.000000, 16.000000)">
			<polygon id="Fill-1" class="st0" points="57,2 67.1,2 67.1,21.1 85,2 98.2,2 77.8,23.4 100,48 85.8,48 67.1,26.2 67.1,48 57,48 
							"/>
			<g id="Group-28">
				<g id="Clip-3">
				</g>
				<defs>
					<filter id="Adobe_OpacityMaskFilter" filterUnits="userSpaceOnUse" x="103.2" y="0.7" width="11.2" height="46.5">
						<feColorMatrix  type="matrix" values="1 0 0 0 0  0 1 0 0 0  0 0 1 0 0  0 0 0 1 0"/>
					</filter>
				</defs>
				<mask maskUnits="userSpaceOnUse" x="103.2" y="0.7" width="11.2" height="46.5" id="mask-2_1_">
					<g class="st1">
						<polygon id="path-1_1_" class="st2" points="0,0.7 202.7,0.7 202.7,61 0,61 						"/>
					</g>
				</mask>
				<path id="Fill-2" class="st3" d="M104,47.2h9.7V16.1H104V47.2z M103.2,6.3c0-1.5,0.5-2.8,1.6-3.9c1.1-1.1,2.4-1.6,4-1.6
					c1.5,0,2.9,0.5,4,1.6c1.1,1.1,1.6,2.4,1.6,3.9s-0.5,2.8-1.6,3.9c-1.1,1.1-2.4,1.6-4,1.6c-1.5,0-2.9-0.5-4-1.6
					C103.8,9.1,103.2,7.8,103.2,6.3z"/>
				<defs>
					<filter id="Adobe_OpacityMaskFilter_1_" filterUnits="userSpaceOnUse" x="119.2" y="6.8" width="24.3" height="41.1">
						<feColorMatrix  type="matrix" values="1 0 0 0 0  0 1 0 0 0  0 0 1 0 0  0 0 0 1 0"/>
					</filter>
				</defs>
				<mask maskUnits="userSpaceOnUse" x="119.2" y="6.8" width="24.3" height="41.1" id="mask-2_2_">
					<g class="st4">
						<polygon id="path-1_2_" class="st2" points="0,0.7 202.7,0.7 202.7,61 0,61 						"/>
					</g>
				</mask>
				<path id="Fill-4" class="st5" d="M143.5,23.7H135v10.4c0,0.9,0,1.6,0.1,2.3c0.1,0.7,0.3,1.3,0.6,1.8c0.3,0.5,0.8,0.9,1.4,1.2
					c0.6,0.3,1.4,0.4,2.5,0.4c0.5,0,1.2-0.1,2-0.2c0.8-0.1,1.5-0.4,1.9-0.7v8c-1.1,0.4-2.2,0.6-3.3,0.8c-1.2,0.1-2.3,0.2-3.4,0.2
					c-1.6,0-3.1-0.2-4.5-0.5c-1.4-0.3-2.6-0.9-3.6-1.6c-1-0.7-1.8-1.7-2.4-2.9c-0.6-1.2-0.9-2.6-0.9-4.4V23.7h-6.2v-7.7h6.2V6.8h9.7
					v9.2h8.5V23.7z"/>
				<defs>
					<filter id="Adobe_OpacityMaskFilter_2_" filterUnits="userSpaceOnUse" x="147" y="6.8" width="24.3" height="41.1">
						<feColorMatrix  type="matrix" values="1 0 0 0 0  0 1 0 0 0  0 0 1 0 0  0 0 0 1 0"/>
					</filter>
				</defs>
				<mask maskUnits="userSpaceOnUse" x="147" y="6.8" width="24.3" height="41.1" id="mask-2_3_">
					<g class="st6">
						<polygon id="path-1_3_" class="st2" points="0,0.7 202.7,0.7 202.7,61 0,61 						"/>
					</g>
				</mask>
				<path id="Fill-5" class="st7" d="M171.3,23.7h-8.5v10.4c0,0.9,0,1.6,0.1,2.3c0.1,0.7,0.3,1.3,0.6,1.8c0.3,0.5,0.8,0.9,1.4,1.2
					c0.6,0.3,1.4,0.4,2.5,0.4c0.5,0,1.2-0.1,2-0.2c0.8-0.1,1.5-0.4,1.9-0.7v8c-1.1,0.4-2.2,0.6-3.3,0.8c-1.2,0.1-2.3,0.2-3.4,0.2
					c-1.6,0-3.1-0.2-4.5-0.5c-1.4-0.3-2.6-0.9-3.6-1.6c-1-0.7-1.8-1.7-2.4-2.9c-0.6-1.2-0.9-2.6-0.9-4.4V23.7H147v-7.7h6.2V6.8h9.7
					v9.2h8.5V23.7z"/>
				<defs>
					<filter id="Adobe_OpacityMaskFilter_3_" filterUnits="userSpaceOnUse" x="176" y="15.3" width="26.7" height="32.7">
						<feColorMatrix  type="matrix" values="1 0 0 0 0  0 1 0 0 0  0 0 1 0 0  0 0 0 1 0"/>
					</filter>
				</defs>
				<mask maskUnits="userSpaceOnUse" x="176" y="15.3" width="26.7" height="32.7" id="mask-2_4_">
					<g class="st8">
						<polygon id="path-1_4_" class="st2" points="0,0.7 202.7,0.7 202.7,61 0,61 						"/>
					</g>
				</mask>
				<path id="Fill-6" class="st9" d="M195.5,25.2c-1.4-1.8-3.3-2.6-5.6-2.6c-0.8,0-1.6,0.2-2.4,0.6c-0.8,0.4-1.2,1-1.2,2
					c0,0.8,0.4,1.3,1.2,1.7c0.8,0.4,1.8,0.7,3,1c1.2,0.3,2.5,0.6,3.9,0.9c1.4,0.3,2.7,0.8,3.9,1.5c1.2,0.7,2.2,1.6,3,2.8
					c0.8,1.2,1.2,2.7,1.2,4.7c0,2-0.4,3.7-1.3,5c-0.9,1.3-2,2.3-3.4,3.1c-1.4,0.8-2.9,1.3-4.6,1.7c-1.7,0.3-3.4,0.5-5.1,0.5
					c-2.2,0-4.4-0.3-6.6-0.9c-2.2-0.6-4.1-1.7-5.7-3.3l5.9-6.5c0.9,1.1,1.9,2,3,2.5c1.1,0.6,2.4,0.9,3.8,0.9c1.1,0,2.1-0.2,3-0.5
					c0.9-0.3,1.4-0.9,1.4-1.8c0-0.8-0.4-1.4-1.2-1.8c-0.8-0.4-1.8-0.7-3-1c-1.2-0.3-2.5-0.6-3.9-0.9c-1.4-0.3-2.7-0.8-3.9-1.4
					c-1.2-0.6-2.2-1.5-3-2.7c-0.8-1.2-1.2-2.7-1.2-4.7c0-1.8,0.4-3.4,1.1-4.7c0.7-1.3,1.7-2.4,3-3.3c1.2-0.9,2.6-1.5,4.2-1.9
					c1.6-0.4,3.2-0.6,4.8-0.6c2.1,0,4.1,0.3,6.2,0.9c2.1,0.6,3.9,1.7,5.3,3.2L195.5,25.2z"/>
				<defs>
					<filter id="Adobe_OpacityMaskFilter_4_" filterUnits="userSpaceOnUse" x="0" y="24.4" width="23.7" height="22.5">
						<feColorMatrix  type="matrix" values="1 0 0 0 0  0 1 0 0 0  0 0 1 0 0  0 0 0 1 0"/>
					</filter>
				</defs>
				<mask maskUnits="userSpaceOnUse" x="0" y="24.4" width="23.7" height="22.5" id="mask-2_21_">
					<g class="st10">
						<polygon id="path-1_21_" class="st2" points="0,0.7 202.7,0.7 202.7,61 0,61 						"/>
					</g>
				</mask>
				<polygon id="Fill-23" class="st11" points="0,46.8 23.7,35.6 0,24.4 				"/>
				<defs>
					<filter id="Adobe_OpacityMaskFilter_5_" filterUnits="userSpaceOnUse" x="0" y="1.9" width="23.7" height="22.5">
						<feColorMatrix  type="matrix" values="1 0 0 0 0  0 1 0 0 0  0 0 1 0 0  0 0 0 1 0"/>
					</filter>
				</defs>
				<mask maskUnits="userSpaceOnUse" x="0" y="1.9" width="23.7" height="22.5" id="mask-2_22_">
					<g class="st12">
						<polygon id="path-1_22_" class="st2" points="0,0.7 202.7,0.7 202.7,61 0,61 						"/>
					</g>
				</mask>
				<polygon id="Fill-24" class="st13" points="0,1.9 0,24.4 23.7,13.1 				"/>
				<defs>
					<filter id="Adobe_OpacityMaskFilter_6_" filterUnits="userSpaceOnUse" x="23.7" y="24.4" width="23.7" height="22.5">
						<feColorMatrix  type="matrix" values="1 0 0 0 0  0 1 0 0 0  0 0 1 0 0  0 0 0 1 0"/>
					</filter>
				</defs>
				<mask maskUnits="userSpaceOnUse" x="23.7" y="24.4" width="23.7" height="22.5" id="mask-2_23_">
					<g class="st14">
						<polygon id="path-1_23_" class="st2" points="0,0.7 202.7,0.7 202.7,61 0,61 						"/>
					</g>
				</mask>
				<polygon id="Fill-25" class="st15" points="47.4,46.8 47.4,24.4 23.7,35.6 				"/>
				<defs>
					<filter id="Adobe_OpacityMaskFilter_7_" filterUnits="userSpaceOnUse" x="23.7" y="1.9" width="23.7" height="22.5">
						<feColorMatrix  type="matrix" values="1 0 0 0 0  0 1 0 0 0  0 0 1 0 0  0 0 0 1 0"/>
					</filter>
				</defs>
				<mask maskUnits="userSpaceOnUse" x="23.7" y="1.9" width="23.7" height="22.5" id="mask-2_24_">
					<g class="st16">
						<polygon id="path-1_24_" class="st2" points="0,0.7 202.7,0.7 202.7,61 0,61 						"/>
					</g>
				</mask>
				<polygon id="Fill-26" class="st17" points="23.7,13.1 47.4,24.4 47.4,1.9 				"/>
				<defs>
					<filter id="Adobe_OpacityMaskFilter_8_" filterUnits="userSpaceOnUse" x="0" y="13.1" width="47.4" height="22.5">
						<feColorMatrix  type="matrix" values="1 0 0 0 0  0 1 0 0 0  0 0 1 0 0  0 0 0 1 0"/>
					</filter>
				</defs>
				<mask maskUnits="userSpaceOnUse" x="0" y="13.1" width="47.4" height="22.5" id="mask-2_25_">
					<g class="st18">
						<polygon id="path-1_25_" class="st2" points="0,0.7 202.7,0.7 202.7,61 0,61 						"/>
					</g>
				</mask>
				<polygon id="Fill-27" class="st19" points="0,24.4 23.7,35.6 47.4,24.4 23.7,13.1 				"/>
			</g>
		</g>
	</g>
</g>
</svg>
