<svg id="Layer_1" data-name="Layer 1" xmlns="http://www.w3.org/2000/svg" viewBox="0 0 461.5 130.6"><defs><style>.cls-1{fill:#5b5f63}.cls-2{fill:#c5c5c4}.cls-3{fill:#44b8b7}</style></defs><path class="cls-1" d="M346.1 343.6h2.6l4.1 15.4 4.4-15.4h2.9l4.3 15.4 4.2-15.4h2.6l-5.4 19.3h-2.7l-4.4-15.7-4.5 15.7h-2.7zM373.6 343.6h11.9v2.4H376v5.7h8.7v2.5h-8.7v6.2h9.9v2.4h-12.4zM395.3 343.6h2.3l7.9 19.2h-3l-1.8-4.7h-8.8l-1.8 4.7h-3zm4.5 12.2l-3.5-8.8-3.5 8.8zM407.9 343.6h2.5v16.8h8.4v2.4h-11zM422.9 346h-6v-2.4h14.4v2.4h-6v16.8H423zM434 343.6h2.5v8h9.5v-8h2.5v19.2H446V354h-9.6v8.8H434zM460.4 343.6h3.7L470 358h.1l5.8-14.5h3.8v19.2h-2.5V347h-.1l-6.2 15.8h-1.7l-6.3-15.8v15.8h-2.5zM490 343.6h2.3l7.9 19.2h-3l-1.8-4.7h-8.8l-1.8 4.7h-3zm4.5 12.2L491 347l-3.5 8.8zM502.5 343.6h3.3l10.2 15.8v-15.8h2.5v19.2h-3.2L505.1 347h-.1v15.8h-2.5zM529 343.6h2.4l7.9 19.2h-3l-1.8-4.7h-8.8l-1.8 4.7h-3zm4.6 12.2L530 347l-3.5 8.8zM557.4 352v9.5a7.6 7.6 0 0 1-1.6.8 16 16 0 0 1-1.7.6 13.5 13.5 0 0 1-2 .3 14.2 14.2 0 0 1-1.7.1 10.3 10.3 0 0 1-4.2-.8 9.4 9.4 0 0 1-3.1-2.2 9.8 9.8 0 0 1-2-3.2 11.3 11.3 0 0 1-.6-3.9 10.9 10.9 0 0 1 .7-4 10 10 0 0 1 2-3.2 9 9 0 0 1 3-2.1 9.7 9.7 0 0 1 3.9-.8 11.2 11.2 0 0 1 4.2.7 7.8 7.8 0 0 1 2.7 1.8l-1.8 2a6.5 6.5 0 0 0-2.4-1.6 8 8 0 0 0-2.7-.4 6.5 6.5 0 0 0-2.9.6 6.6 6.6 0 0 0-2.2 1.6 7.3 7.3 0 0 0-1.4 2.5 8.8 8.8 0 0 0-.5 3 8.1 8.1 0 0 0 .6 3 7.3 7.3 0 0 0 1.5 2.4 6.8 6.8 0 0 0 2.3 1.6 6.9 6.9 0 0 0 2.8.6 12 12 0 0 0 2.5-.3 7 7 0 0 0 2-.7v-5.4h-4v-2.4zM562 343.6h11.9v2.4h-9.5v5.7h8.8v2.5h-8.8v6.2h10v2.4h-12.5zM577.7 343.6h3.7l5.9 14.5 5.9-14.5h3.7v19.2h-2.5V347l-6.2 15.8h-1.7l-6.3-15.8v15.8h-2.5zM601.5 343.6h12v2.4H604v5.7h8.8v2.5H604v6.2h9.9v2.4h-12.4zM617.4 343.6h3.3l10.2 15.8v-15.8h2.5v19.2h-3.1L620 347v15.8h-2.5zM642 346h-5.9v-2.4h14.4v2.4h-6v16.8H642zM345.4 235.2h21.2v40l37.4-40h27.7L389 279.9l46.5 51.5h-29.7l-39.1-45.7v45.7h-21.2zM442.1 244.6a11.8 11.8 0 1 1 3.5 8.3 11.4 11.4 0 0 1-3.5-8.3zm1.6 20.8h20.4v66h-20.4zM527.2 281.6h-18v22a41.5 41.5 0 0 0 .3 5 10 10 0 0 0 1.2 3.9 6.2 6.2 0 0 0 3 2.5 13 13 0 0 0 5.2.9 34.4 34.4 0 0 0 4.3-.4 7.3 7.3 0 0 0 4-1.5v17a31.1 31.1 0 0 1-7.1 1.6 65.7 65.7 0 0 1-7.2.4 39.4 39.4 0 0 1-9.5-1 21.7 21.7 0 0 1-7.6-3.5 16.3 16.3 0 0 1-5.1-6.2 21 21 0 0 1-1.9-9.3v-31.4h-13v-16.3h13v-19.5h20.4v19.5h18zM585.8 281.6H568v22a41.5 41.5 0 0 0 .3 5 9.9 9.9 0 0 0 1.2 3.9 6.2 6.2 0 0 0 3 2.5 13 13 0 0 0 5.2.9 34.4 34.4 0 0 0 4.2-.4 7.2 7.2 0 0 0 4-1.5v17a31 31 0 0 1-7 1.6 65.7 65.7 0 0 1-7.2.4 39.4 39.4 0 0 1-9.5-1 21.7 21.7 0 0 1-7.7-3.5 16.3 16.3 0 0 1-5-6.2 21.1 21.1 0 0 1-1.9-9.3v-31.4h-13v-16.3h13v-19.5H568v19.5h18zM637 284.8a14.4 14.4 0 0 0-11.9-5.6 11.2 11.2 0 0 0-5 1.2 4.3 4.3 0 0 0-2.5 4.2 3.8 3.8 0 0 0 2.6 3.6 33.1 33.1 0 0 0 6.3 2l8.3 2a31.1 31.1 0 0 1 8.3 3.1 18.6 18.6 0 0 1 6.4 6q2.5 3.7 2.5 10a18.5 18.5 0 0 1-2.8 10.5 21.5 21.5 0 0 1-7.1 6.6 30.8 30.8 0 0 1-9.8 3.6 58 58 0 0 1-10.7 1 52 52 0 0 1-14-2 26.1 26.1 0 0 1-12-7l12.4-13.7a20.5 20.5 0 0 0 6.3 5.4 17 17 0 0 0 8.1 1.8 18.9 18.9 0 0 0 6.4-1 3.8 3.8 0 0 0 2.8-3.7 4.2 4.2 0 0 0-2.5-3.9 27.7 27.7 0 0 0-6.4-2.2l-8.3-1.9a34.8 34.8 0 0 1-8.2-3 17.4 17.4 0 0 1-6.4-5.8q-2.5-3.7-2.5-10a20.2 20.2 0 0 1 2.3-10 21 21 0 0 1 6.3-7 27.3 27.3 0 0 1 8.9-4 40.8 40.8 0 0 1 10.2-1.3 47.7 47.7 0 0 1 13.2 2 24.5 24.5 0 0 1 11.2 6.7z" transform="translate(-190.5 -232.8)"/><path class="cls-2" d="M0 130.5l67.3-32L0 66.5v64zM0 2.4v64l67.3-32L0 2.4z"/><path class="cls-3" d="M134.5 130.5v-64l-67.2 32 67.2 32zM67.3 34.4l67.2 32v-64l-67.2 32z"/><path fill="#348386" d="M0 66.4l67.3 32 67.2-32-67.2-32L0 66.4z"/></svg>