<svg id="Layer_1" xmlns="http://www.w3.org/2000/svg" viewBox="0 0 203 49.3" enable-background="new 0 0 203 49.3"><style>.st2{fill:#fff}</style><g id="_x31_.-Artboards"><g id="Kitts-Home-Desktop-" transform="translate(-146 -16)"><g id="Group" transform="translate(146 16)"><path id="Fill-1" fill="#5a5f63" d="M57 2h10.1v19.1L85 2h13.2L77.8 23.4 100 48H85.8L67.1 26.2V48H57z"/><g id="Group-28"><defs><filter id="Adobe_OpacityMaskFilter" filterUnits="userSpaceOnUse" x="103.2" y=".7" width="11.2" height="46.5"><feColorMatrix values="1 0 0 0 0 0 1 0 0 0 0 0 1 0 0 0 0 0 1 0"/></filter></defs><mask maskUnits="userSpaceOnUse" x="103.2" y=".7" width="11.2" height="46.5" id="mask-2_1_"><g filter="url(#Adobe_OpacityMaskFilter)"><path id="path-1_1_" class="st2" d="M0 .7h202.7V61H0z"/></g></mask><path id="Fill-2" d="M104 47.2h9.7V16.1H104v31.1zm-.8-40.9c0-1.5.5-2.8 1.6-3.9s2.4-1.6 4-1.6c1.5 0 2.9.5 4 1.6s1.6 2.4 1.6 3.9-.5 2.8-1.6 3.9-2.4 1.6-4 1.6c-1.5 0-2.9-.5-4-1.6-1-1.1-1.6-2.4-1.6-3.9z" mask="url(#mask-2_1_)" fill="#5a5f63"/><defs><filter id="Adobe_OpacityMaskFilter_1_" filterUnits="userSpaceOnUse" x="119.2" y="6.8" width="24.3" height="41.1"><feColorMatrix values="1 0 0 0 0 0 1 0 0 0 0 0 1 0 0 0 0 0 1 0"/></filter></defs><mask maskUnits="userSpaceOnUse" x="119.2" y="6.8" width="24.3" height="41.1" id="mask-2_2_"><g filter="url(#Adobe_OpacityMaskFilter_1_)"><path id="path-1_2_" class="st2" d="M0 .7h202.7V61H0z"/></g></mask><path id="Fill-4" d="M143.5 23.7H135v10.4c0 .9 0 1.6.1 2.3.1.7.3 1.3.6 1.8s.8.9 1.4 1.2c.6.3 1.4.4 2.5.4.5 0 1.2-.1 2-.2s1.5-.4 1.9-.7v8c-1.1.4-2.2.6-3.3.8-1.2.1-2.3.2-3.4.2-1.6 0-3.1-.2-4.5-.5s-2.6-.9-3.6-1.6c-1-.7-1.8-1.7-2.4-2.9-.6-1.2-.9-2.6-.9-4.4V23.7h-6.2V16h6.2V6.8h9.7V16h8.5v7.7z" mask="url(#mask-2_2_)" fill="#5a5f63"/><defs><filter id="Adobe_OpacityMaskFilter_2_" filterUnits="userSpaceOnUse" x="147" y="6.8" width="24.3" height="41.1"><feColorMatrix values="1 0 0 0 0 0 1 0 0 0 0 0 1 0 0 0 0 0 1 0"/></filter></defs><mask maskUnits="userSpaceOnUse" x="147" y="6.8" width="24.3" height="41.1" id="mask-2_3_"><g filter="url(#Adobe_OpacityMaskFilter_2_)"><path id="path-1_3_" class="st2" d="M0 .7h202.7V61H0z"/></g></mask><path id="Fill-5" d="M171.3 23.7h-8.5v10.4c0 .9 0 1.6.1 2.3.1.7.3 1.3.6 1.8s.8.9 1.4 1.2c.6.3 1.4.4 2.5.4.5 0 1.2-.1 2-.2s1.5-.4 1.9-.7v8c-1.1.4-2.2.6-3.3.8-1.2.1-2.3.2-3.4.2-1.6 0-3.1-.2-4.5-.5s-2.6-.9-3.6-1.6c-1-.7-1.8-1.7-2.4-2.9-.6-1.2-.9-2.6-.9-4.4V23.7H147V16h6.2V6.8h9.7V16h8.5v7.7z" mask="url(#mask-2_3_)" fill="#5a5f63"/><defs><filter id="Adobe_OpacityMaskFilter_3_" filterUnits="userSpaceOnUse" x="176" y="15.3" width="26.7" height="32.7"><feColorMatrix values="1 0 0 0 0 0 1 0 0 0 0 0 1 0 0 0 0 0 1 0"/></filter></defs><mask maskUnits="userSpaceOnUse" x="176" y="15.3" width="26.7" height="32.7" id="mask-2_4_"><g filter="url(#Adobe_OpacityMaskFilter_3_)"><path id="path-1_4_" class="st2" d="M0 .7h202.7V61H0z"/></g></mask><path id="Fill-6" d="M195.5 25.2c-1.4-1.8-3.3-2.6-5.6-2.6-.8 0-1.6.2-2.4.6-.8.4-1.2 1-1.2 2 0 .8.4 1.3 1.2 1.7.8.4 1.8.7 3 1 1.2.3 2.5.6 3.9.9 1.4.3 2.7.8 3.9 1.5 1.2.7 2.2 1.6 3 2.8.8 1.2 1.2 2.7 1.2 4.7s-.4 3.7-1.3 5c-.9 1.3-2 2.3-3.4 3.1-1.4.8-2.9 1.3-4.6 1.7-1.7.3-3.4.5-5.1.5-2.2 0-4.4-.3-6.6-.9-2.2-.6-4.1-1.7-5.7-3.3l5.9-6.5c.9 1.1 1.9 2 3 2.5 1.1.6 2.4.9 3.8.9 1.1 0 2.1-.2 3-.5.9-.3 1.4-.9 1.4-1.8 0-.8-.4-1.4-1.2-1.8-.8-.4-1.8-.7-3-1-1.2-.3-2.5-.6-3.9-.9-1.4-.3-2.7-.8-3.9-1.4-1.2-.6-2.2-1.5-3-2.7-.8-1.2-1.2-2.7-1.2-4.7 0-1.8.4-3.4 1.1-4.7.7-1.3 1.7-2.4 3-3.3 1.2-.9 2.6-1.5 4.2-1.9 1.6-.4 3.2-.6 4.8-.6 2.1 0 4.1.3 6.2.9 2.1.6 3.9 1.7 5.3 3.2l-5.8 5.6z" mask="url(#mask-2_4_)" fill="#5a5f63"/><defs><filter id="Adobe_OpacityMaskFilter_4_" filterUnits="userSpaceOnUse" x="0" y="24.4" width="23.7" height="22.5"><feColorMatrix values="1 0 0 0 0 0 1 0 0 0 0 0 1 0 0 0 0 0 1 0"/></filter></defs><mask maskUnits="userSpaceOnUse" x="0" y="24.4" width="23.7" height="22.5" id="mask-2_21_"><g filter="url(#Adobe_OpacityMaskFilter_4_)"><path id="path-1_21_" class="st2" d="M0 .7h202.7V61H0z"/></g></mask><path id="Fill-23" mask="url(#mask-2_21_)" fill="#c4c4c4" d="M0 46.8l23.7-11.2L0 24.4z"/><defs><filter id="Adobe_OpacityMaskFilter_5_" filterUnits="userSpaceOnUse" x="0" y="1.9" width="23.7" height="22.5"><feColorMatrix values="1 0 0 0 0 0 1 0 0 0 0 0 1 0 0 0 0 0 1 0"/></filter></defs><mask maskUnits="userSpaceOnUse" x="0" y="1.9" width="23.7" height="22.5" id="mask-2_22_"><g filter="url(#Adobe_OpacityMaskFilter_5_)"><path id="path-1_22_" class="st2" d="M0 .7h202.7V61H0z"/></g></mask><path id="Fill-24" mask="url(#mask-2_22_)" fill="#c4c4c4" d="M0 1.9v22.5l23.7-11.3z"/><defs><filter id="Adobe_OpacityMaskFilter_6_" filterUnits="userSpaceOnUse" x="23.7" y="24.4" width="23.7" height="22.5"><feColorMatrix values="1 0 0 0 0 0 1 0 0 0 0 0 1 0 0 0 0 0 1 0"/></filter></defs><mask maskUnits="userSpaceOnUse" x="23.7" y="24.4" width="23.7" height="22.5" id="mask-2_23_"><g filter="url(#Adobe_OpacityMaskFilter_6_)"><path id="path-1_23_" class="st2" d="M0 .7h202.7V61H0z"/></g></mask><path id="Fill-25" mask="url(#mask-2_23_)" fill="#44b7b6" d="M47.4 46.8V24.4L23.7 35.6z"/><defs><filter id="Adobe_OpacityMaskFilter_7_" filterUnits="userSpaceOnUse" x="23.7" y="1.9" width="23.7" height="22.5"><feColorMatrix values="1 0 0 0 0 0 1 0 0 0 0 0 1 0 0 0 0 0 1 0"/></filter></defs><mask maskUnits="userSpaceOnUse" x="23.7" y="1.9" width="23.7" height="22.5" id="mask-2_24_"><g filter="url(#Adobe_OpacityMaskFilter_7_)"><path id="path-1_24_" class="st2" d="M0 .7h202.7V61H0z"/></g></mask><path id="Fill-26" mask="url(#mask-2_24_)" fill="#44b7b6" d="M23.7 13.1l23.7 11.3V1.9z"/><defs><filter id="Adobe_OpacityMaskFilter_8_" filterUnits="userSpaceOnUse" x="0" y="13.1" width="47.4" height="22.5"><feColorMatrix values="1 0 0 0 0 0 1 0 0 0 0 0 1 0 0 0 0 0 1 0"/></filter></defs><mask maskUnits="userSpaceOnUse" x="0" y="13.1" width="47.4" height="22.5" id="mask-2_25_"><g filter="url(#Adobe_OpacityMaskFilter_8_)"><path id="path-1_25_" class="st2" d="M0 .7h202.7V61H0z"/></g></mask><path id="Fill-27" mask="url(#mask-2_25_)" fill="#348285" d="M0 24.4l23.7 11.2 23.7-11.2-23.7-11.3z"/></g></g></g></g></svg>